<?xml version="1.0"?>
<svg xmlns="http://www.w3.org/2000/svg" id="Capa_1" enable-background="new 0 0 512 512" height="512px" viewBox="0 0 512 512" width="512px"><g><g><g><path d="m502 416.868h-17.979v-280.464c0-5.523-4.478-10-10-10h-90.83v-30.16h8.383c5.522 0 10-4.477 10-10v-53.617c0-5.523-4.478-10-10-10h-271.148c-5.522 0-10 4.477-10 10v53.617c0 5.523 4.478 10 10 10h8.383v30.16h-90.83c-5.522 0-10 4.477-10 10v280.463h-17.979c-5.522 0-10 4.477-10 10v52.505c0 5.523 4.478 10 10 10h200.794c5.522 0 10-4.477 10-10s-4.478-10-10-10h-190.794v-32.505h472v32.505h-190.794c-5.522 0-10 4.477-10 10s4.478 10 10 10h200.794c5.522 0 10-4.477 10-10v-52.505c0-5.522-4.478-9.999-10-9.999zm-37.979-62.083h-30.415v-33.942h30.415zm0-117.412h-30.415v-33.943h30.415zm-333.595-194.746h251.148v33.617h-251.148zm-82.447 160.803h30.415v33.942h-30.415zm0 117.413h30.415v33.942h-30.415zm0 53.942h40.415c5.522 0 10-4.477 10-10v-53.942c0-5.523-4.478-10-10-10h-40.415v-43.47h40.415c5.522 0 10-4.477 10-10v-53.943c0-5.523-4.478-10-10-10h-40.415v-37.026h80.83v270.463h-80.83zm100.83-278.54h214.383v320.623h-38.617v-121.73h8.787c5.522 0 10-4.477 10-10s-4.478-10-10-10h-154.723c-5.522 0-10 4.477-10 10s4.478 10 10 10h8.787v121.729h-38.617zm58.617 198.893h38.574v121.729h-38.574zm58.574 121.73v-121.73h38.574v121.729h-38.574zm117.191 0v-270.464h80.83v37.026h-40.415c-5.522 0-10 4.477-10 10v53.942c0 5.523 4.478 10 10 10h40.415v43.47h-40.415c-5.522 0-10 4.477-10 10v53.942c0 5.523 4.478 10 10 10h40.415v42.083h-80.83z" data-original="#000000" class="active-path" data-old_color="#000000" fill="#F95D02"/><path d="m265.42 475.55c-1.636-3.99-5.836-6.523-10.128-6.135-4.144.375-7.68 3.356-8.762 7.369-1.074 3.979.484 8.312 3.828 10.717 3.386 2.434 8.082 2.47 11.507.095 3.816-2.647 5.345-7.749 3.555-12.046z" data-original="#000000" class="active-path" data-old_color="#000000" fill="#F95D02"/><path d="m212.084 207.89h13.958v13.958c0 5.523 4.478 10 10 10h40.283c5.522 0 10-4.477 10-10v-13.958h13.958c5.522 0 10-4.477 10-10v-40.283c0-5.523-4.478-10-10-10h-13.958v-13.958c0-5.523-4.478-10-10-10h-40.283c-5.522 0-10 4.477-10 10v13.958h-13.958c-5.522 0-10 4.477-10 10v40.283c0 5.523 4.478 10 10 10zm10-40.283h13.958c5.522 0 10-4.477 10-10v-13.958h20.283v13.958c0 5.523 4.478 10 10 10h13.958v20.283h-13.958c-5.522 0-10 4.477-10 10v13.958h-20.283v-13.958c0-5.523-4.478-10-10-10h-13.958z" data-original="#000000" class="active-path" data-old_color="#000000" fill="#F95D02"/></g></g></g> </svg>
